<svg width="20" height="20" viewBox="0 0 20 20" fill="none" xmlns="http://www.w3.org/2000/svg">
<g clip-path="url(#clip0_8_2)">
<path fill-rule="evenodd" clip-rule="evenodd" d="M0.314286 1.82857C0.125028 1.62546 0.0219952 1.35683 0.0268927 1.07925C0.0317901 0.80168 0.144236 0.536844 0.34054 0.34054C0.536844 0.144236 0.80168 0.0317901 1.07925 0.0268927C1.35683 0.0219952 1.62546 0.125028 1.82857 0.314286L5.57143 4.05429C5.79714 3.78714 6.1 3.59429 6.43857 3.50143L17.2614 0.5C17.5183 0.430686 17.7877 0.421265 18.0488 0.472462C18.3099 0.523659 18.5558 0.634108 18.7675 0.795302C18.9792 0.956496 19.1511 1.16413 19.2699 1.40222C19.3887 1.64031 19.4513 1.90249 19.4529 2.16857V12.4329C19.5042 13.149 19.335 13.8636 18.968 14.4807C18.601 15.0977 18.0538 15.5876 17.4 15.8843L19.6857 18.1729C19.791 18.2709 19.8754 18.3892 19.934 18.5207C19.9925 18.6521 20.024 18.794 20.0266 18.9378C20.0291 19.0817 20.0026 19.2246 19.9487 19.358C19.8949 19.4914 19.8147 19.6126 19.7129 19.7143C19.6112 19.8161 19.49 19.8963 19.3566 19.9502C19.2232 20.0041 19.0803 20.0305 18.9364 20.028C18.7925 20.0254 18.6507 19.994 18.5192 19.9354C18.3878 19.8768 18.2695 19.7924 18.1714 19.6871L0.314286 1.82857ZM12.7386 11.2243C13.1186 10.386 13.812 9.73003 14.6701 9.39701C15.5281 9.064 16.4825 9.08045 17.3286 9.44286V5.93286L9.61571 8.1L12.7386 11.2243ZM5.15714 12.9429V8.91857L7.28143 11.0429V15.9286C7.33578 16.6939 7.13847 17.456 6.71956 18.0989C6.30065 18.7417 5.68311 19.2299 4.961 19.4893C4.2389 19.7486 3.45181 19.7648 2.71964 19.5354C1.98748 19.306 1.35037 18.8435 0.905368 18.2185C0.460367 17.5935 0.231867 16.8401 0.254679 16.0732C0.27749 15.3063 0.55036 14.5678 1.03172 13.9703C1.51309 13.3728 2.17656 12.9491 2.92106 12.7636C3.66557 12.5781 4.45173 12.6411 5.15714 12.9429Z" fill="#1E1E1E"/>
</g>
<defs>
<clipPath id="clip0_8_2">
<rect width="20" height="20" fill="white"/>
</clipPath>
</defs>
</svg>
